<svg xmlns="http://www.w3.org/2000/svg" viewBox="0 0 42 45.12"><defs><style>.cls-1{fill:#fff;}</style></defs><title>Recurso 9</title><g id="Capa_2" data-name="Capa 2"><g id="login"><path class="cls-1" d="M27.77,45.12c-1.57-1.54-3.16-3.06-4.71-4.62a1.15,1.15,0,0,1,0-1.71q2.05-2.13,4.18-4.19a1.17,1.17,0,0,1,1.78,0A1.09,1.09,0,0,1,29,36.28c-.64.62-1.31,1.21-2,1.81l.19.37a30.1,30.1,0,0,0,3.31-.79,13.48,13.48,0,0,0,8.87-9.8A1.05,1.05,0,0,1,40.2,27a8.44,8.44,0,0,0,1.72-1c.52,2.34-1.68,7.39-4.55,10.2a16.39,16.39,0,0,1-10.64,4.69c.77.73,1.36,1.25,1.92,1.81,1,1,1,1.54-.08,2.45Z"/><path class="cls-1" d="M31.18,0a12.85,12.85,0,0,1,2,1A4.84,4.84,0,0,1,34.9,6.84a5,5,0,0,1-5.17,3,4.89,4.89,0,0,1-4.21-4.32A4.88,4.88,0,0,1,28.83.26L29.58,0Z"/><path class="cls-1" d="M30.34,24.93q-3.66,0-7.32,0c-1.62,0-2.24-.63-2.25-2.24,0-2,0-4,0-6a4.45,4.45,0,0,1,3.78-4.56c2.76-.31,2-.8,3,1.68.74,1.92,1.39,3.89,2.12,5.81a3.88,3.88,0,0,0,.76.93,4,4,0,0,0,.68-.89c.86-2.31,1.71-4.62,2.51-7,.26-.75.63-1,1.4-.77s1.46.21,2.15.42A4.28,4.28,0,0,1,40,16.44c.06,2.17,0,4.34,0,6.51a1.81,1.81,0,0,1-2,2C35.42,25,32.88,24.93,30.34,24.93Z"/><path class="cls-1" d="M17.18,26.88a8.11,8.11,0,0,1-1,.87c-1.43.9-1.45,1.39,0,2.23,1.09.66,1.15.89.53,2-.48.84-1,1.67-1.45,2.5-.58,1-.86,1.06-1.83.53a6.21,6.21,0,0,0-.62-.33.91.91,0,0,0-1.41.81,6.74,6.74,0,0,0,0,.9,1,1,0,0,1-1.07,1.12H6.78c-.73,0-1.12-.33-1.09-1.1a6.76,6.76,0,0,0,0-.9c-.09-.86-.69-1.18-1.48-.8a6.89,6.89,0,0,0-.7.39,1,1,0,0,1-1.57-.42c-.55-1-1.12-2-1.69-2.94a1,1,0,0,1,.47-1.64,4.82,4.82,0,0,0,.69-.41c.69-.51.68-1.1,0-1.61-1.64-1.2-1.64-1.2-.63-2.92.4-.69.81-1.38,1.2-2.08a1,1,0,0,1,1.5-.41c.25.15.52.3.79.43.8.37,1.36,0,1.45-.85a5.34,5.34,0,0,0,0-.8c-.05-.81.35-1.17,1.13-1.17h3.4c.79,0,1.18.37,1.14,1.17a5.33,5.33,0,0,0,0,.8c.08.9.63,1.23,1.44.87,1.82-.82,1.82-.83,2.84.92.38.66.77,1.32,1.14,2C16.92,26.24,17,26.49,17.18,26.88Zm-8.63-.63a2.64,2.64,0,1,0,0,5.27,2.64,2.64,0,0,0,0-5.27Z"/><path class="cls-1" d="M15,10a13.15,13.15,0,0,0-7.82,3.31,13.16,13.16,0,0,0-4.09,6.3,1.12,1.12,0,0,1-1,.91,7,7,0,0,0-1.76.95c-.2-2.65,2.13-7.2,4.8-9.62A16.56,16.56,0,0,1,15.35,7.52c-.7-.72-1.3-1.32-1.88-1.93s-.81-1.51-.23-2,1.35-.31,1.93.28c1.24,1.26,2.5,2.5,3.75,3.76.83.85.82,1.33,0,2.2-1.24,1.26-2.5,2.51-3.75,3.75-.72.71-1.39.78-1.93.25a1.31,1.31,0,0,1,.21-1.94c.56-.57,1.16-1.09,1.74-1.63Z"/><path class="cls-1" d="M30.32,17.72a3.86,3.86,0,0,1-.54-3.2,2.21,2.21,0,0,0-.4-2c-.45-.55-.21-.92.49-1a2.28,2.28,0,0,1,.69,0,8.78,8.78,0,0,1,1,.32,5.43,5.43,0,0,0-.31.91c-.1.73-.15,1.46-.23,2.19l-.3,2.75Z"/></g></g></svg>