<svg xmlns="http://www.w3.org/2000/svg" viewBox="0 0 26.85 26.85"><defs><style>.cls-1{fill:#fff;}</style></defs><title>Recurso 19</title><g id="Capa_2" data-name="Capa 2"><g id="login"><path class="cls-1" d="M7,26.85c-.19-.05-.38-.09-.57-.15A3.31,3.31,0,0,1,4,23.65c0-3.13,0-6.27,0-9.41,0,0,0-.06,0-.12l.1.05a3.5,3.5,0,0,0,2.05.61h3.2v1.91a.71.71,0,0,0,.67.78.7.7,0,0,0,.68-.78V15.06c0-.09,0-.17,0-.27H16.1V16.6a2.21,2.21,0,0,0,0,.37.66.66,0,0,0,1.28,0,1.76,1.76,0,0,0,0-.33c0-.6,0-1.21,0-1.84h3.17a3.59,3.59,0,0,0,2.18-.68c0,.11,0,.19,0,.27,0,3,0,6,0,8.94a3.42,3.42,0,0,1-2.89,3.51l-.07,0Z"/><path class="cls-1" d="M0,17.83a2.27,2.27,0,0,1,.68-1.21,2.41,2.41,0,0,1,2-.49v8a3.28,3.28,0,0,1-1.74-1,3.19,3.19,0,0,1-.89-1.77,1.09,1.09,0,0,0,0-.17Z"/><path class="cls-1" d="M10.74,13.41c0-.21,0-.41,0-.61a.67.67,0,1,0-1.34,0c0,.2,0,.4,0,.61l-.19,0H6a2,2,0,0,1-2-2c0-1.38,0-2.77,0-4.16A3.33,3.33,0,0,1,7.28,4h2.1c0-.11,0-.2,0-.29,0-.69,0-1.39,0-2.07A1.94,1.94,0,0,1,11.34,0c1.39,0,2.78,0,4.17,0a2,2,0,0,1,1.94,2c0,.57,0,1.14,0,1.71V4h2a3.13,3.13,0,0,1,1.83.53,3.22,3.22,0,0,1,1.54,2.71c0,1.39,0,2.78,0,4.17a2,2,0,0,1-1.81,2H17.45c0-.21,0-.41,0-.61a.68.68,0,0,0-.68-.73.7.7,0,0,0-.67.73v.59ZM16.1,4c0-.65,0-1.3,0-1.94a.66.66,0,0,0-.71-.73H11.46c-.38,0-.69.21-.7.53,0,.71,0,1.41,0,2.13Z"/><path class="cls-1" d="M24.16,16.15a2.14,2.14,0,0,1,2.59,1.4,2,2,0,0,1,.09.54c0,.94,0,1.89,0,2.83A3.32,3.32,0,0,1,24.39,24a1.06,1.06,0,0,1-.23,0Z"/></g></g></svg>