<svg xmlns="http://www.w3.org/2000/svg" xmlns:xlink="http://www.w3.org/1999/xlink" viewBox="0 0 25.5 25.83"><defs><style>.cls-1{opacity:0.75;fill:url(#Degradado_sin_nombre_61);}.cls-2{fill:#029adc;}.cls-3{fill:#f7f9fb;}.cls-4{fill:#d4d6d7;}</style><radialGradient id="Degradado_sin_nombre_61" cx="-201.15" cy="23.75" r="6.66" gradientTransform="matrix(1.27, 0, 0, 0.28, 268, 16.58)" gradientUnits="userSpaceOnUse"><stop offset="0" stop-color="#0072d0"/><stop offset="0.1" stop-color="#0877d2" stop-opacity="0.97"/><stop offset="0.25" stop-color="#1f83d6" stop-opacity="0.88"/><stop offset="0.42" stop-color="#4598dd" stop-opacity="0.73"/><stop offset="0.61" stop-color="#7ab5e6" stop-opacity="0.52"/><stop offset="0.82" stop-color="#bcdaf3" stop-opacity="0.26"/><stop offset="1" stop-color="#fff" stop-opacity="0"/></radialGradient></defs><title>Recurso 5</title><g id="Capa_2" data-name="Capa 2"><g id="login"><ellipse class="cls-1" cx="12.75" cy="23.75" rx="12.75" ry="2.09"/><path class="cls-2" d="M13.64,0A11.84,11.84,0,1,1,1.81,11.84,11.85,11.85,0,0,1,13.64,0Zm5.93,5.73L18.87,5A1.68,1.68,0,0,0,16.5,5c-.3.28-.59.59-.88.88-.11.1-.09.18,0,.27l3.76,3.76c.1.1.17.11.27,0L20.54,9a1.66,1.66,0,0,0,0-2.33c-.21-.22-.44-.43-.65-.64A1.18,1.18,0,0,0,19.57,5.73ZM12.24,17.27a.32.32,0,0,0,.14-.12l2.94-2.93,3.49-3.49c.11-.11.1-.16,0-.27-.75-.73-1.49-1.48-2.24-2.22L15,6.69c-.1-.1-.16-.13-.26,0L14,7.5,8.37,13.08c-.15.15-.15.22,0,.36l3.74,3.74S12.17,17.26,12.24,17.27ZM8.7,19c.44-.06.88-.1,1.32-.19A3.33,3.33,0,0,0,11.53,18c.09-.08.09-.14,0-.22a3.7,3.7,0,0,1-.28-.28L7.73,14c-.11-.1-.17-.09-.25,0a3.5,3.5,0,0,0-.53.84,6.59,6.59,0,0,0-.4,2c0,.1,0,.15.1.21l1.82,1.81A.24.24,0,0,0,8.7,19Zm-2.37-.21c0,.34,0,.46.25.44L7.84,19c.11,0,.11-.06,0-.13l-.28-.28-1-1s-.07-.09-.13-.05-.05,0-.05.07A10.24,10.24,0,0,1,6.33,18.74Z"/><path class="cls-3" d="M12.24,17.27c-.07,0-.1-.06-.14-.09L8.36,13.44c-.14-.14-.14-.21,0-.36L14,7.5l.81-.82c.1-.12.16-.09.26,0l1.54,1.55c.75.74,1.49,1.49,2.24,2.22.1.11.11.16,0,.27l-3.49,3.49-2.94,2.93A.32.32,0,0,1,12.24,17.27Zm-1.81-3.63c.11,0,.14-.1.18-.13L13.12,11l2.07-2.06c.11-.1.09-.17,0-.25s-.13-.23-.28-.06c-.32.36-.7.66-1,1s-.77.79-1.17,1.18-1,1-1.5,1.48c-.31.29-.6.6-.88.91-.05,0-.16.07-.1.17Zm1.7,1.69.15-.14,1.45-1.45q1.56-1.58,3.13-3.14c.16-.14,0-.19,0-.27s-.15-.14-.27,0L12,14.91s-.12.07-.07.14S12.05,15.23,12.13,15.33Z"/><path class="cls-3" d="M19.87,6c.21.21.44.42.65.64a1.66,1.66,0,0,1,0,2.33l-.88.89c-.1.1-.17.09-.27,0L15.63,6.11c-.1-.09-.12-.17,0-.27.29-.29.58-.6.88-.88a1.68,1.68,0,0,1,2.37,0l.7.73A.3.3,0,0,0,19.87,6Z"/><path class="cls-3" d="M8.7,19a.24.24,0,0,1-.23-.09L6.65,17.05c-.05-.06-.11-.11-.1-.21a6.59,6.59,0,0,1,.4-2A3.5,3.5,0,0,1,7.48,14c.08-.11.14-.12.25,0l3.52,3.53a3.7,3.7,0,0,0,.28.28c.09.08.09.14,0,.22a3.33,3.33,0,0,1-1.51.76C9.58,18.85,9.14,18.89,8.7,19Z"/><path class="cls-3" d="M6.33,18.74a10.24,10.24,0,0,0,.1-1.08s0-.05.05-.07.09,0,.13.05l1,1,.28.28C8,19,8,19,7.84,19l-1.26.14C6.38,19.2,6.31,19.08,6.33,18.74Z"/><path class="cls-4" d="M19.87,6a.3.3,0,0,1-.3-.29A1.18,1.18,0,0,1,19.87,6Z"/><path class="cls-2" d="M10.43,13.64l-.21-.26c-.06-.1,0-.12.1-.17.28-.31.57-.62.88-.91.51-.48,1-1,1.5-1.48s.8-.77,1.17-1.18.71-.66,1-1c.15-.17.2,0,.28.06s.12.15,0,.25L13.12,11l-2.51,2.52S10.54,13.61,10.43,13.64Z"/><path class="cls-2" d="M12.13,15.33c-.08-.1-.16-.18-.23-.28s0-.1.07-.14l4.59-4.6c.12-.12.18-.08.27,0s.19.13,0,.27q-1.57,1.56-3.13,3.14l-1.45,1.45Z"/></g></g></svg>