<svg xmlns="http://www.w3.org/2000/svg" viewBox="0 0 26.97 26.99"><defs><style>.cls-1{fill:#fff;}</style></defs><title>Recurso 7</title><g id="Capa_2" data-name="Capa 2"><g id="menu"><path class="cls-1" d="M27,13V14a.77.77,0,0,0,0,.15,10.28,10.28,0,0,1-.18,1.75A13.51,13.51,0,0,1,16.38,26.67a13.1,13.1,0,0,1-2,.27L14,27H13l-.11,0a15.14,15.14,0,0,1-1.9-.22,13.17,13.17,0,0,1-3.4-1.12A13.48,13.48,0,0,1,0,13.75c0-.41,0-.81,0-1.22a11.26,11.26,0,0,1,.38-2.37A13.19,13.19,0,0,1,4.66,3.3,13.23,13.23,0,0,1,12.8,0a13.29,13.29,0,0,1,2.44.09A13.88,13.88,0,0,1,17.79.7a13.56,13.56,0,0,1,8.28,7.92A12.82,12.82,0,0,1,27,12.9.5.5,0,0,0,27,13Zm-5,9A9.15,9.15,0,0,0,5,22.05,12,12,0,0,0,22,22.05ZM8.67,10.11A4.82,4.82,0,1,0,13.5,5.3,4.84,4.84,0,0,0,8.67,10.11Z"/></g></g></svg>