<svg xmlns="http://www.w3.org/2000/svg" viewBox="0 0 21 28"><defs><style>.cls-1{fill:#0072d0;}</style></defs><title>Recurso 14</title><g id="Capa_2" data-name="Capa 2"><g id="login"><path class="cls-1" d="M1.48,28a1.76,1.76,0,0,1-1.26-.95A2.47,2.47,0,0,1,0,26.13q0-6,0-11.91c0-2.53,0-5.05,0-7.57a1,1,0,0,1,.33-.8L5.86.32A1,1,0,0,1,6.63,0H19.07A1.77,1.77,0,0,1,21,1.94V25.83c0,1.3-.29,1.72-1.48,2.17ZM5.84,2l-.1.06L1.28,6.56a.52.52,0,0,0-.11.32V26.07c0,.54.22.76.76.76q8.57,0,17.13,0c.56,0,.78-.21.78-.77V2c0-.57-.22-.78-.78-.78H7V1.5C7,2.73,7,4,7,5.19A1.7,1.7,0,0,1,5.54,7a19.42,19.42,0,0,1-2,0V5.84H5.08c.54,0,.76-.22.76-.77V2Z"/><path class="cls-1" d="M15.74,16.34V15.18H5.27v1.16c.35,0,.68,0,1,0,.5,0,.71.21.71.72,0,1.08,0,2.16,0,3.25a.61.61,0,0,1-.69.69H3.06c-.51,0-.72-.21-.72-.72V17.06c0-.51.21-.72.71-.72H4l.08,0V14.84c0-.67.17-.84.84-.84h5V12.84H6.05c-.6,0-.8-.2-.8-.81V8.92c0-.53.22-.75.75-.75h9c.51,0,.73.22.73.73v3.19c0,.53-.22.75-.75.75H11.11V14h5c.58,0,.77.2.77.77s0,.89,0,1.34c0,.18.06.24.24.23s.58,0,.87,0a.57.57,0,0,1,.64.62q0,1.71,0,3.42A.58.58,0,0,1,18,21H14.66a.6.6,0,0,1-.66-.67V17a.6.6,0,0,1,.67-.68C15,16.33,15.36,16.34,15.74,16.34Zm-9.31-7v2.29h8.14V9.36ZM5.82,19.82v-2.3H3.52v2.3Zm11.67-2.3h-2.3v2.3h2.3Z"/><path class="cls-1" d="M2.36,23.32V22.18H18.65v1.14Z"/><path class="cls-1" d="M10.49,16.34c.54,0,1.09,0,1.64,0s.71.22.71.72v3.2c0,.52-.22.74-.75.74H8.89c-.49,0-.72-.22-.72-.71,0-1.09,0-2.17,0-3.26,0-.48.22-.69.71-.69S10,16.34,10.49,16.34Zm1.15,3.48v-2.3H9.36v2.3Z"/><path class="cls-1" d="M2.36,25.64V24.52h14v1.12Z"/><path class="cls-1" d="M17.51,25.65V24.52h1.14v1.13Z"/></g></g></svg>