<svg xmlns="http://www.w3.org/2000/svg" viewBox="0 0 30.78 28.74"><defs><style>.cls-1{fill:#0072d0;}</style></defs><title>Recurso 16</title><g id="Capa_2" data-name="Capa 2"><g id="login"><path class="cls-1" d="M15.39,28.74H8.29a4.61,4.61,0,0,1-2-.42,3.68,3.68,0,0,1-2.1-2.72,6.69,6.69,0,0,1-.08-1.48c0-.54,0-1.07.09-1.6a12.89,12.89,0,0,1,.89-3.82,6.6,6.6,0,0,1,1.2-1.92,4.27,4.27,0,0,1,2.4-1.29,6.54,6.54,0,0,1,.89-.08.43.43,0,0,1,.27.06c.31.18.61.36.91.56s.62.41.94.6a7.11,7.11,0,0,0,1.47.64,7.18,7.18,0,0,0,2.76.34,7.63,7.63,0,0,0,2-.45,8,8,0,0,0,1.87-1c.28-.2.57-.37.85-.56a1.22,1.22,0,0,1,.81-.2,4.7,4.7,0,0,1,2.35.78,5,5,0,0,1,1.27,1.35,8.53,8.53,0,0,1,1.11,2.66,15.65,15.65,0,0,1,.44,2.89c0,.57.05,1.13,0,1.7A3.93,3.93,0,0,1,26,27.11a3.77,3.77,0,0,1-2.28,1.49,5.54,5.54,0,0,1-1.29.14Z"/><path class="cls-1" d="M21.55,10.27A6.17,6.17,0,1,1,15.4,4.11,6.15,6.15,0,0,1,21.55,10.27Z"/><path class="cls-1" d="M22.5,9.23c.33.09.65.18,1,.24a5.74,5.74,0,0,0,3.07-.24,11.13,11.13,0,0,0,1.89-.87.92.92,0,0,1,1.09.1,2,2,0,0,1,.57.72,5.85,5.85,0,0,1,.46,1.58,18.36,18.36,0,0,1,.22,3.14,2.39,2.39,0,0,1-.29,1.2,2.2,2.2,0,0,1-1,.9,3.88,3.88,0,0,1-1.86.43H25.61a.18.18,0,0,1-.15-.07,5.43,5.43,0,0,0-2.23-1.61,6,6,0,0,0-1.68-.36l-.27,0A7.07,7.07,0,0,0,22.5,9.23Z"/><path class="cls-1" d="M9.5,14.37l-.59.05a5.39,5.39,0,0,0-3.37,1.69l-.25.27a.09.09,0,0,1-.08,0c-.77,0-1.54,0-2.3,0a3.44,3.44,0,0,1-2-.62A2,2,0,0,1,0,14.25,10.43,10.43,0,0,1,0,13c0-.55.06-1.11.12-1.66a7.28,7.28,0,0,1,.48-2,2.09,2.09,0,0,1,.65-.88,1.22,1.22,0,0,1,.66-.23.43.43,0,0,1,.19,0l.65.33a9.17,9.17,0,0,0,2.42.9,5.31,5.31,0,0,0,1.54.06,5.81,5.81,0,0,0,1.53-.33h0A7.05,7.05,0,0,0,9.5,14.37Z"/><path class="cls-1" d="M10.26,4.11A4.14,4.14,0,0,1,6.15,8.23,4.17,4.17,0,0,1,2,4.11,4.17,4.17,0,0,1,6.2,0,4.13,4.13,0,0,1,10.26,4.11Z"/><path class="cls-1" d="M20.52,4.11a4.11,4.11,0,1,1,8.22,0,4.11,4.11,0,1,1-8.22,0Z"/></g></g></svg>