<svg xmlns="http://www.w3.org/2000/svg" viewBox="0 0 28 28"><defs><style>.cls-1{fill:#0072d0;}</style></defs><title>Recurso 12</title><g id="Capa_2" data-name="Capa 2"><g id="login"><path class="cls-1" d="M19.62,3.36a11.5,11.5,0,1,0-.47,16.71l.91.91a1.62,1.62,0,0,0,.37,1.73l4.81,4.81a1.61,1.61,0,0,0,2.29,0,1.62,1.62,0,0,0,0-2.29l-4.81-4.81A1.66,1.66,0,0,0,21,20.06l-.91-.91A11.51,11.51,0,0,0,19.62,3.36ZM4.74,18.25a9.55,9.55,0,1,1,13.51,0A9.55,9.55,0,0,1,4.74,18.25Z"/><path class="cls-1" d="M15.3,5.23a5.38,5.38,0,0,0-7.61,7.62l3.79,3.77,3.8-3.8A5.36,5.36,0,0,0,15.3,5.23Zm-3.8,7A3.24,3.24,0,1,1,14.73,9,3.23,3.23,0,0,1,11.5,12.24Z"/><path class="cls-1" d="M11.44,17.67a8.9,8.9,0,0,1,3.74.81,5.06,5.06,0,0,0-3.77-1.62A5,5,0,0,0,7.6,18.53,8.87,8.87,0,0,1,11.44,17.67Z"/></g></g></svg>