<svg xmlns="http://www.w3.org/2000/svg" viewBox="0 0 40.31 29.24"><defs><style>.cls-1{fill:#fff;}</style></defs><title>Recurso 11</title><g id="Capa_2" data-name="Capa 2"><g id="menu"><path class="cls-1" d="M36.13,0H4.19A4.15,4.15,0,0,0,0,4.19V25.05A4.15,4.15,0,0,0,4.19,29.2H36.13a4.15,4.15,0,0,0,4.15-4.15V4.19A4.15,4.15,0,0,0,36.13,0ZM34.76,3.1,21.11,13.92a1.51,1.51,0,0,1-1.9,0L5.56,3.1Zm2.46,22a1.09,1.09,0,0,1-1.09,1.09H4.19A1.09,1.09,0,0,1,3.1,25.05v-20L17.3,16.32a4.61,4.61,0,0,0,5.71,0L37.22,5.05v20Z"/><path class="cls-1" d="M36.13,29.24H4.19A4.2,4.2,0,0,1,0,25.05V4.19A4.2,4.2,0,0,1,4.19,0H36.13a4.19,4.19,0,0,1,4.18,4.19V25.05A4.19,4.19,0,0,1,36.13,29.24ZM4.19.07A4.13,4.13,0,0,0,.07,4.19V25.05a4.13,4.13,0,0,0,4.12,4.12H36.13a4.12,4.12,0,0,0,4.11-4.12V4.19A4.12,4.12,0,0,0,36.13.07ZM36.13,26.18H4.19a1.14,1.14,0,0,1-1.13-1.13V5L17.33,16.29a4.54,4.54,0,0,0,5.66,0L37.25,5V25.05A1.13,1.13,0,0,1,36.13,26.18ZM3.13,5.12V25.05a1.07,1.07,0,0,0,1.06,1.06H36.13a1.06,1.06,0,0,0,1-1.06V5.12L23,16.35a4.66,4.66,0,0,1-2.87,1,4.7,4.7,0,0,1-2.88-1Zm17,9.17a1.6,1.6,0,0,1-1-.34L5.45,3.06H34.86L21.13,14A1.57,1.57,0,0,1,20.16,14.29ZM5.66,3.13,19.23,13.9a1.48,1.48,0,0,0,.93.32,1.52,1.52,0,0,0,.93-.32L34.65,3.13Z"/></g></g></svg>