<svg xmlns="http://www.w3.org/2000/svg" viewBox="0 0 28.35 27.65"><defs><style>.cls-1{fill:#fff;}</style></defs><title>Recurso 12</title><g id="Capa_2" data-name="Capa 2"><g id="menu"><path class="cls-1" d="M0,10.62C.25,9.52.42,8.4.76,7.33a14.55,14.55,0,0,1,5-7.08l2,2a12.25,12.25,0,0,0-5,9.1H0Z"/><path class="cls-1" d="M28.35,11.37c-.8,0-1.59,0-2.39,0-.3,0-.47-.07-.5-.4A12,12,0,0,0,20.6,2.29l2-2a14.79,14.79,0,0,1,5.5,9.05c.09.51.16,1,.25,1.54Z"/><path class="cls-1" d="M2.87,23.37a1.88,1.88,0,0,1,.65-2.1c.63-.51,1.15-1.16,1.75-1.71a1.22,1.22,0,0,0,.4-1c0-2.4-.08-4.79,0-7.18A8.53,8.53,0,0,1,9.15,4.44a10.57,10.57,0,0,1,2.4-1.2c.42-.16.55-.33.53-.75a3.08,3.08,0,0,1,.09-1.05A2.07,2.07,0,0,1,14.55,0a1.94,1.94,0,0,1,1.69,2c-.06.89.31,1.16,1.08,1.45a7.8,7.8,0,0,1,5.19,7c.27,2.68.14,5.4.17,8.11a1.32,1.32,0,0,0,.44,1.1c.59.53,1.09,1.17,1.71,1.66a1.86,1.86,0,0,1,.64,2.1Z"/><path class="cls-1" d="M11.36,24.88H17a2.81,2.81,0,0,1-5.61,0Z"/></g></g></svg>