<svg xmlns="http://www.w3.org/2000/svg" viewBox="0 0 30 31.64"><defs><style>.cls-1{fill:#0072d0;}</style></defs><title>Recurso 6</title><g id="Capa_2" data-name="Capa 2"><g id="login"><path class="cls-1" d="M0,15.05Q0,9.22,0,3.39C0,1,1,0,3.36,0c4.7,0,9.41,0,14.11,0a2.43,2.43,0,0,1,1.47.62c1.72,1.64,3.4,3.31,5,5a2.31,2.31,0,0,1,.61,1.47c0,6.54,0,13.09,0,19.64,0,2.2-1,3.27-3.21,3.28q-9.08,0-18.16,0C1,30.07,0,29.05,0,26.83,0,22.9,0,19,0,15.05Zm11,3.23c1.06,1.1,2,2.08,2.94,3a1.36,1.36,0,0,0,2.07.16c1.38-1.32,2.7-2.71,4-4.06l-2-2.18-3,3.41c-1-1-1.83-2-2.72-2.85s-1.59-1-2.6,0-1.71,1.69-2.56,2.54l-.3-.13V11H4.17V25.91H20.4V23.24H6.92l-.23-.38C7.79,21.15,9.49,20,11,18.28ZM16.49,1.81V8.09h6.28Z"/><path class="cls-1" d="M30,27.28H27.41v-8H30Z"/><path class="cls-1" d="M28.46,31.64c-.37-.5-1-1-1.06-1.5a1.18,1.18,0,0,1,1.33-1.37c.81,0,1.38.54,1.25,1.31-.09.56-.64,1-1,1.54Z"/></g></g></svg>