<svg xmlns="http://www.w3.org/2000/svg" viewBox="0 0 20.98 23.53"><defs><style>.cls-1{fill:#fff;}</style></defs><title>Recurso 21</title><g id="Capa_2" data-name="Capa 2"><g id="login"><path class="cls-1" d="M16.05,9.45V21.12a2.13,2.13,0,0,1-2.37,2.41H2.46C.78,23.52,0,22.72,0,21V6.65a2.13,2.13,0,0,1,2.38-2.4h9.36a1,1,0,0,1,.58.17c-.48.43-.94.89-1.43,1.29-.13.11-.38.09-.57.1H2.5c-.81,0-.93.13-.93.93q0,7.15,0,14.32c0,.77.12.9.9.9H13.57c.79,0,.91-.13.91-.95q0-4.76,0-9.49A1.32,1.32,0,0,1,15,10.38a11.61,11.61,0,0,0,.94-1Z"/><path class="cls-1" d="M15.07,2.52,18.5,6C16.68,7.75,14.76,9.49,13,11.4a7.56,7.56,0,0,1-4.55,2.53c-.59.09-1.17.28-1.86.45,0-.3.07-.47.11-.63.2-.77.47-1.53.6-2.31A5.12,5.12,0,0,1,9,8.54C11.07,6.58,13.05,4.54,15.07,2.52Zm.11,1.58c-.17.14-.32.26-.46.39-1.89,1.89-3.79,3.78-5.67,5.69-.13.14-.12.42-.18.64.22-.06.49-.06.64-.2,1.21-1.17,2.39-2.37,3.58-3.56.75-.74,1.49-1.48,2.22-2.24a.7.7,0,0,0,.15-.47C15.46,4.29,15.31,4.21,15.18,4.1Zm-4.91,8.29c.29-.24.45-.35.58-.48L16.37,6.4A2.19,2.19,0,0,0,16.73,6a.44.44,0,0,0,0-.42.55.55,0,0,0-.41,0c-.1,0-.18.15-.26.24L10.4,11.43c-.1.1-.25.2-.26.31A2.28,2.28,0,0,0,10.27,12.39Z"/><path class="cls-1" d="M15.87,1.63,17.19.4A1.27,1.27,0,0,1,19,.37,20.13,20.13,0,0,1,20.61,2a1.28,1.28,0,0,1-.06,1.86c-.41.43-.8.88-1.19,1.31Z"/><path class="cls-1" d="M7.91,17.61H3.32a1,1,0,0,1-.47,0,.46.46,0,0,1-.23-.35c0-.08.15-.22.25-.26a1.91,1.91,0,0,1,.48,0h9.24s.05,0,.06,0c.22.1.63.2.63.32,0,.44-.38.34-.66.35-.46,0-.91,0-1.37,0Z"/><path class="cls-1" d="M8,19.79c-1.59,0-3.18,0-4.77,0-.21,0-.41-.19-.61-.29.21-.13.41-.35.62-.35,3.14,0,6.28,0,9.42,0,.08,0,.18,0,.23,0s.3.25.45.37c-.15.1-.3.27-.46.28-.73,0-1.47,0-2.2,0Z"/><path class="cls-1" d="M8,15.4c-1.59,0-3.17,0-4.76,0-.21,0-.41-.19-.61-.3.19-.11.39-.32.58-.32q4.77,0,9.52,0c.21,0,.41.19.61.3-.21.11-.42.31-.64.32C11.1,15.42,9.54,15.4,8,15.4Z"/><path class="cls-1" d="M8.35,8.18a1.11,1.11,0,0,1-1.07.66c-1.35,0-2.7,0-4,0-.26,0-.64.09-.61-.33,0-.12.37-.3.57-.31C4.88,8.17,6.57,8.18,8.35,8.18Z"/><path class="cls-1" d="M6.85,10.37c.06.52-.14.69-.61.68-1,0-2,0-3,0-.2,0-.4-.21-.6-.32.19-.11.38-.32.57-.33C4.4,10.35,5.63,10.37,6.85,10.37Z"/><path class="cls-1" d="M6.32,12.55l-.16.67c-1,0-2.08,0-3.1,0-.16,0-.31-.21-.46-.32.16-.11.31-.31.47-.32C4.12,12.53,5.17,12.55,6.32,12.55Z"/><path class="cls-1" d="M12.14,13a3.56,3.56,0,0,1,.58-.37.52.52,0,0,1,.42,0c.09,0,.19.25.15.32a.49.49,0,0,1-.34.25,3,3,0,0,1-.67,0Z"/></g></g></svg>