<svg xmlns="http://www.w3.org/2000/svg" viewBox="0 0 35.97 35"><defs><style>.cls-1{fill:#fff;}</style></defs><title>Recurso 11</title><g id="Capa_2" data-name="Capa 2"><g id="login"><path class="cls-1" d="M0,34.84c.58-1.13,1.18-2.24,1.73-3.38Q4.56,25.7,7.36,19.93a1.41,1.41,0,0,1,2.32-.15l1,1.52c-.08.05-.12.11-.16.1-1.19-.23-1.74.36-2.22,1.41-1.42,3.12-3,6.18-4.47,9.26l-.34.72h29c-.09-.23-.17-.45-.27-.65-1.58-3.25-3.19-6.48-4.72-9.75-.36-.76-.78-1.13-1.61-1a3.83,3.83,0,0,1-.62,0,21.28,21.28,0,0,1,1.29-2c.39-.48,1.79-.13,2.08.46l7,14.32c.1.2.24.39.36.59V35H0Z"/><path class="cls-1" d="M17.75,27.24c-1.3-1.4-2.64-2.77-3.9-4.2a23.74,23.74,0,0,1-5.62-9.8,10.29,10.29,0,0,1,5-12A10.15,10.15,0,0,1,28,8.74a14.26,14.26,0,0,1-2,8.85,33.8,33.8,0,0,1-7.74,9.26A2.53,2.53,0,0,1,18,27Zm.22-13a4.05,4.05,0,0,0,4.09-4,4.08,4.08,0,1,0-8.15,0A4,4,0,0,0,18,14.22Z"/></g></g></svg>